<svg width="66" height="49" viewBox="0 0 66 49" fill="none" xmlns="http://www.w3.org/2000/svg">
<g filter="url(#filter0_dd_99_85562)">
<rect x="9.84277" y="4.93774" width="46.6143" height="30.0304" rx="5.37857" fill="white"/>
<rect x="9.73072" y="4.82569" width="46.8384" height="30.2545" rx="5.49062" stroke="#D6DCE5" stroke-width="0.224107"/>
<path d="M24.92 16.0192C25.231 15.6302 25.4421 15.1079 25.3864 14.5742C24.9311 14.5969 24.3756 14.8746 24.054 15.2639C23.7652 15.5972 23.5096 16.1414 23.5762 16.6527C24.0873 16.697 24.5978 16.3973 24.92 16.0192Z" fill="#000008"/>
<path d="M25.3806 16.7526C24.6385 16.7084 24.0074 17.1738 23.653 17.1738C23.2984 17.1738 22.7557 16.7748 22.1687 16.7856C21.4047 16.7968 20.6957 17.2288 20.308 17.9159C19.5106 19.2903 20.0976 21.3291 20.8731 22.4485C21.2497 23.0023 21.7035 23.6121 22.3015 23.5902C22.8666 23.568 23.088 23.2243 23.7749 23.2243C24.4612 23.2243 24.6607 23.5902 25.2588 23.5791C25.879 23.568 26.2668 23.025 26.6434 22.4707C27.0754 21.8394 27.2523 21.2298 27.2634 21.1963C27.2523 21.1852 26.0674 20.7307 26.0564 19.3677C26.0452 18.2264 26.9867 17.6835 27.031 17.6498C26.4993 16.8635 25.6686 16.7748 25.3806 16.7526Z" fill="#000008"/>
<path d="M31.8427 15.208C33.4557 15.208 34.579 16.3199 34.579 17.9388C34.579 19.5634 33.4326 20.681 31.8022 20.681H30.0163V23.5212H28.7259V15.208L31.8427 15.208ZM30.0163 19.5979H31.4969C32.6203 19.5979 33.2597 18.9931 33.2597 17.9445C33.2597 16.8961 32.6203 16.2969 31.5026 16.2969H30.0163V19.5979Z" fill="#000008"/>
<path d="M34.9161 21.7987C34.9161 20.7386 35.7284 20.0876 37.1688 20.007L38.8278 19.9091V19.4425C38.8278 18.7684 38.3727 18.3651 37.6124 18.3651C36.8921 18.3651 36.4427 18.7107 36.3333 19.2523H35.1581C35.2272 18.1576 36.1604 17.3511 37.6584 17.3511C39.1274 17.3511 40.0664 18.1289 40.0664 19.3444V23.5212H38.8738V22.5246H38.8451C38.4938 23.1986 37.7275 23.6249 36.9325 23.6249C35.7457 23.6249 34.9161 22.8875 34.9161 21.7987ZM38.8278 21.2514V20.7733L37.3357 20.8654C36.5925 20.9173 36.172 21.2456 36.172 21.7641C36.172 22.2941 36.6098 22.6398 37.2781 22.6398C38.148 22.6398 38.8278 22.0406 38.8278 21.2514Z" fill="#000008"/>
<path d="M41.1923 25.7508V24.7426C41.2843 24.7656 41.4916 24.7656 41.5954 24.7656C42.1715 24.7656 42.4826 24.5236 42.6727 23.9015C42.6727 23.8899 42.7822 23.5328 42.7822 23.527L40.5931 17.4606H41.941L43.4736 22.3921H43.4965L45.0291 17.4606H46.3426L44.0726 23.838C43.5543 25.3072 42.9551 25.7796 41.6992 25.7796C41.5954 25.7796 41.2843 25.768 41.1923 25.7508Z" fill="#000008"/>
</g>
<defs>
<filter id="filter0_dd_99_85562" x="0.654855" y="0.23148" width="64.9911" height="48.4071" filterUnits="userSpaceOnUse" color-interpolation-filters="sRGB">
<feFlood flood-opacity="0" result="BackgroundImageFix"/>
<feColorMatrix in="SourceAlpha" type="matrix" values="0 0 0 0 0 0 0 0 0 0 0 0 0 0 0 0 0 0 127 0" result="hardAlpha"/>
<feOffset dy="0.448214"/>
<feGaussianBlur stdDeviation="2.24107"/>
<feColorMatrix type="matrix" values="0 0 0 0 0.717647 0 0 0 0 0.717647 0 0 0 0 0.717647 0 0 0 0.08 0"/>
<feBlend mode="normal" in2="BackgroundImageFix" result="effect1_dropShadow_99_85562"/>
<feColorMatrix in="SourceAlpha" type="matrix" values="0 0 0 0 0 0 0 0 0 0 0 0 0 0 0 0 0 0 127 0" result="hardAlpha"/>
<feOffset dy="4.48214"/>
<feGaussianBlur stdDeviation="4.48214"/>
<feColorMatrix type="matrix" values="0 0 0 0 0.717647 0 0 0 0 0.717647 0 0 0 0 0.717647 0 0 0 0.08 0"/>
<feBlend mode="normal" in2="effect1_dropShadow_99_85562" result="effect2_dropShadow_99_85562"/>
<feBlend mode="normal" in="SourceGraphic" in2="effect2_dropShadow_99_85562" result="shape"/>
</filter>
</defs>
</svg>
