<svg width="66" height="49" viewBox="0 0 66 49" fill="none" xmlns="http://www.w3.org/2000/svg">
<g filter="url(#filter0_dd_99_85564)">
<rect x="9.45703" y="4.93774" width="46.6143" height="30.0304" rx="5.37857" fill="white"/>
<rect x="9.34498" y="4.82569" width="46.8384" height="30.2545" rx="5.49062" stroke="#D6DCE5" stroke-width="0.224107"/>
<path d="M31.7505 23.5518H30.702V15.3936H33.4815C34.1859 15.3936 34.7866 15.6284 35.278 16.098C35.7804 16.5676 36.0316 17.141 36.0316 17.8181C36.0316 18.5116 35.7804 19.085 35.278 19.5491C34.7921 20.0133 34.1914 20.2426 33.4815 20.2426H31.7505V23.5518ZM31.7505 16.3983V19.2433H33.5033C33.9183 19.2433 34.2678 19.1014 34.5409 18.8229C34.8194 18.5444 34.9613 18.2058 34.9613 17.8236C34.9613 17.4468 34.8194 17.1137 34.5409 16.8352C34.2678 16.5458 33.9238 16.4038 33.5033 16.4038H31.7505V16.3983Z" fill="#3C4043"/>
<path d="M38.7728 17.7853C39.5482 17.7853 40.1598 17.9928 40.6075 18.4078C41.0553 18.8229 41.2792 19.3908 41.2792 20.1116V23.5518H40.2799V22.7764H40.2362C39.8048 23.4153 39.226 23.732 38.5052 23.732C37.8881 23.732 37.3748 23.5518 36.9598 23.1859C36.5448 22.8201 36.3373 22.3668 36.3373 21.8208C36.3373 21.2419 36.5557 20.7832 36.9926 20.4447C37.4294 20.1007 38.0137 19.9314 38.74 19.9314C39.3625 19.9314 39.8758 20.046 40.2744 20.2754V20.0351C40.2744 19.6693 40.1325 19.3635 39.843 19.1068C39.5536 18.8502 39.2151 18.7246 38.8274 18.7246C38.2431 18.7246 37.7789 18.9703 37.4404 19.4672L36.5175 18.8884C37.0254 18.1512 37.7789 17.7853 38.7728 17.7853ZM37.4185 21.8371C37.4185 22.1102 37.5332 22.3395 37.768 22.5197C37.9973 22.6999 38.2704 22.7928 38.5816 22.7928C39.0239 22.7928 39.4171 22.6289 39.7611 22.3013C40.1052 21.9737 40.2799 21.5914 40.2799 21.1491C39.9523 20.8925 39.499 20.7614 38.9147 20.7614C38.4888 20.7614 38.1339 20.8651 37.8499 21.0672C37.5605 21.2802 37.4185 21.5368 37.4185 21.8371Z" fill="#3C4043"/>
<path d="M46.9802 17.9656L43.4854 26.0037H42.4041L43.7038 23.1914L41.3994 17.9656H42.5407L44.2007 21.9737H44.2225L45.8389 17.9656H46.9802Z" fill="#3C4043"/>
<path d="M27.5801 19.5819C27.5801 19.2401 27.5495 18.913 27.4927 18.5984H23.098V20.4004L25.629 20.401C25.5264 21.0006 25.196 21.5117 24.6898 21.8524V23.0216H26.1964C27.0761 22.2074 27.5801 21.0039 27.5801 19.5819Z" fill="#4285F4"/>
<path d="M24.6903 21.8525C24.2709 22.1354 23.7309 22.3008 23.0991 22.3008C21.8786 22.3008 20.8433 21.4784 20.4725 20.3699H18.9184V21.5756C19.6884 23.1035 21.2709 24.152 23.0991 24.152C24.3627 24.152 25.4242 23.7364 26.1969 23.0211L24.6903 21.8525Z" fill="#34A853"/>
<path d="M20.3261 19.4754C20.3261 19.1641 20.378 18.8633 20.4725 18.5804V17.3747H18.9184C18.6 18.0065 18.4209 18.7196 18.4209 19.4754C18.4209 20.2312 18.6006 20.9443 18.9184 21.5761L20.4725 20.3704C20.378 20.0875 20.3261 19.7867 20.3261 19.4754Z" fill="#FABB05"/>
<path d="M23.0991 16.6495C23.7888 16.6495 24.4064 16.887 24.894 17.3512L26.2291 16.0172C25.4182 15.262 24.361 14.7983 23.0991 14.7983C21.2714 14.7983 19.6883 15.8468 18.9184 17.3747L20.4725 18.5804C20.8432 17.4719 21.8786 16.6495 23.0991 16.6495Z" fill="#E94235"/>
</g>
<defs>
<filter id="filter0_dd_99_85564" x="0.269113" y="0.23148" width="64.9911" height="48.4071" filterUnits="userSpaceOnUse" color-interpolation-filters="sRGB">
<feFlood flood-opacity="0" result="BackgroundImageFix"/>
<feColorMatrix in="SourceAlpha" type="matrix" values="0 0 0 0 0 0 0 0 0 0 0 0 0 0 0 0 0 0 127 0" result="hardAlpha"/>
<feOffset dy="0.448214"/>
<feGaussianBlur stdDeviation="2.24107"/>
<feColorMatrix type="matrix" values="0 0 0 0 0.717647 0 0 0 0 0.717647 0 0 0 0 0.717647 0 0 0 0.08 0"/>
<feBlend mode="normal" in2="BackgroundImageFix" result="effect1_dropShadow_99_85564"/>
<feColorMatrix in="SourceAlpha" type="matrix" values="0 0 0 0 0 0 0 0 0 0 0 0 0 0 0 0 0 0 127 0" result="hardAlpha"/>
<feOffset dy="4.48214"/>
<feGaussianBlur stdDeviation="4.48214"/>
<feColorMatrix type="matrix" values="0 0 0 0 0.717647 0 0 0 0 0.717647 0 0 0 0 0.717647 0 0 0 0.08 0"/>
<feBlend mode="normal" in2="effect1_dropShadow_99_85564" result="effect2_dropShadow_99_85564"/>
<feBlend mode="normal" in="SourceGraphic" in2="effect2_dropShadow_99_85564" result="shape"/>
</filter>
</defs>
</svg>
