<svg width="195" height="38" viewBox="0 0 195 38" fill="none" xmlns="http://www.w3.org/2000/svg">
<path d="M0 32.7137V0.937744H6.08282L19.6103 23.3625H16.3873L29.6878 0.937744H35.7252L35.816 32.7137H28.9161L28.8707 11.5146H30.1418L19.5195 29.3545H16.2057L5.35652 11.5146H6.89992V32.7137H0Z" fill="black"/>
<path d="M75.915 34.1321V2.3562H81.9979L100.746 25.2349H97.795V2.3562H105.058V34.1321H99.0207L80.2275 11.2535H83.1781V34.1321H75.915Z" fill="black"/>
<path d="M119.483 34.1321V8.34824H109.314V2.3562H137.005V8.34824H126.837V34.1321H119.483Z" fill="black"/>
<path d="M148.024 15.1574H163.321V20.877H148.024V15.1574ZM148.568 28.2309H165.863V34.1321H141.26V2.3562H165.273V8.25745H148.568V28.2309Z" fill="black"/>
<path d="M176.883 15.1574H192.181V20.877H176.883V15.1574ZM177.428 28.2309H194.723V34.1321H170.119V2.3562H194.133V8.25745H177.428V28.2309Z" fill="black"/>
<path d="M55.2839 2.25239L53.9561 2.37591V8.89151C53.9561 14.0484 54.0487 15.3145 54.3575 15.0983C54.5428 14.9439 57.4146 12.7515 60.6878 10.2502C63.9302 7.74896 66.6167 5.58739 66.6167 5.43299C66.6167 5.09332 62.6332 3.05526 61.2128 2.71559C59.6379 2.31415 56.9514 2.12887 55.2839 2.25239Z" fill="#0BB3D8"/>
<path d="M51.0841 3.39501C47.9962 4.66108 45.217 7.03881 43.673 9.69445L43.1172 10.6517L48.1506 14.6661L53.1839 18.6804L53.3692 15.2219C53.7398 8.64455 53.678 2.6539 53.2766 2.6539C53.0604 2.6539 52.0723 2.99358 51.0841 3.39501Z" fill="#0BB3D8"/>
<path d="M62.1391 9.54001C59.5761 11.6089 57.4454 13.4308 57.4145 13.6161C57.3219 13.8632 71.2486 17.4452 72.422 17.4761C73.3175 17.4761 72.0206 12.1957 70.5692 9.78705C69.8281 8.58275 67.2651 5.74182 66.9563 5.7727C66.8637 5.7727 64.6712 7.47108 62.1391 9.54001Z" fill="#0BB3D8"/>
<path d="M60.2239 15.3456C60.3166 15.5926 61.4591 18.063 62.756 20.8731C64.053 23.6831 65.5352 26.8637 66.0293 27.9445L66.9248 29.9517L68.0365 28.8709C70.4142 26.5858 72.2052 22.942 72.6375 19.607L72.8537 17.9086L66.9557 16.6117C63.7133 15.9014 60.8415 15.2221 60.5636 15.0986C60.1622 14.9442 60.0695 15.0368 60.2239 15.3456Z" fill="#0BB3D8"/>
<path d="M60.772 18.6798C60.6378 18.907 59.4313 21.3468 58.0573 24.1199C56.6833 26.8931 55.137 30.0431 54.6056 31.106L53.6047 33.0628L55.1438 33.2501C58.4151 33.6674 62.376 32.7753 65.2439 31.0191L66.7019 30.1216L64.0106 24.7156C62.5289 21.7454 61.2557 19.0831 61.1775 18.7892C61.0458 18.3798 60.9155 18.3658 60.772 18.6798Z" fill="#0BB3D8"/>
<path d="M58.7313 21.1599C58.4695 21.193 55.8021 21.7343 52.7685 22.3475C49.735 22.9606 46.2981 23.6684 45.1324 23.8996L42.9727 24.3075L43.7677 25.6387C45.442 28.4797 48.5739 31.0637 51.719 32.2543L53.3215 32.8567L55.9452 27.4175C57.3848 24.4267 58.7089 21.7893 58.8932 21.5475C59.1361 21.1925 59.0674 21.081 58.7313 21.1599Z" fill="#0BB3D8"/>
<path d="M54.2261 20.8522C54.0546 20.6798 52.1583 19.0381 50.0034 17.1696C47.8486 15.3012 45.3976 13.1917 44.5728 12.4713L43.0595 11.125L42.5356 12.4543C41.405 15.2752 41.2823 19.0148 42.1837 21.9799L42.6462 23.4884L48.0919 22.3413C51.0845 21.7084 53.7542 21.1901 54.0345 21.1885C54.4302 21.1659 54.4729 21.053 54.2261 20.8522Z" fill="#0BB3D8"/>
</svg>
