<svg width="66" height="49" viewBox="0 0 66 49" fill="none" xmlns="http://www.w3.org/2000/svg">
<g filter="url(#filter0_dd_99_85558)">
<rect x="9.61426" y="4.93774" width="46.6143" height="30.0304" rx="5.37857" fill="white"/>
<rect x="9.5022" y="4.82569" width="46.8384" height="30.2545" rx="5.49062" stroke="#D6DCE5" stroke-width="0.224107"/>
<path d="M36.27 13.7861H29.4068V26.1196H36.27V13.7861Z" fill="#FF5F00"/>
<path d="M29.8426 19.9529C29.8415 18.7651 30.1107 17.5926 30.6297 16.5242C31.1487 15.4558 31.904 14.5195 32.8384 13.7861C31.6813 12.8766 30.2916 12.311 28.8283 12.1539C27.3649 11.9969 25.8869 12.2547 24.5631 12.8979C23.2393 13.5412 22.1232 14.5439 21.3424 15.7914C20.5615 17.039 20.1475 18.4811 20.1475 19.9529C20.1475 21.4247 20.5615 22.8667 21.3424 24.1143C22.1232 25.3619 23.2393 26.3646 24.5631 27.0078C25.8869 27.6511 27.3649 27.9089 28.8283 27.7518C30.2916 27.5948 31.6813 27.0292 32.8384 26.1196C31.904 25.3863 31.1487 24.45 30.6297 23.3816C30.1107 22.3132 29.8415 21.1407 29.8426 19.9529Z" fill="#EB001B"/>
<path d="M45.529 19.9529C45.529 21.4246 45.115 22.8667 44.3342 24.1143C43.5534 25.3619 42.4374 26.3646 41.1136 27.0078C39.7899 27.6511 38.3118 27.9089 36.8485 27.7518C35.3851 27.5948 33.9955 27.0292 32.8384 26.1196C33.772 25.3855 34.5267 24.4491 35.0457 23.3808C35.5646 22.3126 35.8343 21.1405 35.8343 19.9529C35.8343 18.7653 35.5646 17.5931 35.0457 16.5249C34.5267 15.4567 33.772 14.5202 32.8384 13.7861C33.9955 12.8766 35.3851 12.311 36.8485 12.1539C38.3118 11.9969 39.7899 12.2547 41.1136 12.8979C42.4374 13.5412 43.5534 14.5439 44.3342 15.7915C45.115 17.039 45.529 18.4811 45.529 19.9529Z" fill="#F79E1B"/>
<path d="M44.7807 24.8133V24.5608H44.8825V24.5094H44.6232V24.5608H44.725V24.8133H44.7807ZM45.2841 24.8133V24.5089H45.2046L45.1132 24.7183L45.0217 24.5089H44.9422V24.8133H44.9983V24.5837L45.0841 24.7817H45.1423L45.228 24.5832V24.8133H45.2841Z" fill="#F79E1B"/>
</g>
<defs>
<filter id="filter0_dd_99_85558" x="0.426339" y="0.23148" width="64.9911" height="48.4071" filterUnits="userSpaceOnUse" color-interpolation-filters="sRGB">
<feFlood flood-opacity="0" result="BackgroundImageFix"/>
<feColorMatrix in="SourceAlpha" type="matrix" values="0 0 0 0 0 0 0 0 0 0 0 0 0 0 0 0 0 0 127 0" result="hardAlpha"/>
<feOffset dy="0.448214"/>
<feGaussianBlur stdDeviation="2.24107"/>
<feColorMatrix type="matrix" values="0 0 0 0 0.717647 0 0 0 0 0.717647 0 0 0 0 0.717647 0 0 0 0.08 0"/>
<feBlend mode="normal" in2="BackgroundImageFix" result="effect1_dropShadow_99_85558"/>
<feColorMatrix in="SourceAlpha" type="matrix" values="0 0 0 0 0 0 0 0 0 0 0 0 0 0 0 0 0 0 127 0" result="hardAlpha"/>
<feOffset dy="4.48214"/>
<feGaussianBlur stdDeviation="4.48214"/>
<feColorMatrix type="matrix" values="0 0 0 0 0.717647 0 0 0 0 0.717647 0 0 0 0 0.717647 0 0 0 0.08 0"/>
<feBlend mode="normal" in2="effect1_dropShadow_99_85558" result="effect2_dropShadow_99_85558"/>
<feBlend mode="normal" in="SourceGraphic" in2="effect2_dropShadow_99_85558" result="shape"/>
</filter>
</defs>
</svg>
