<svg width="349" height="48" viewBox="0 0 349 48" fill="none" xmlns="http://www.w3.org/2000/svg">
<rect width="349" height="48" rx="24" fill="white"/>
<path d="M37 16.125H19C18.7016 16.125 18.4155 16.2435 18.2045 16.4545C17.9935 16.6655 17.875 16.9516 17.875 17.25V30C17.875 30.4973 18.0725 30.9742 18.4242 31.3258C18.7758 31.6775 19.2527 31.875 19.75 31.875H36.25C36.7473 31.875 37.2242 31.6775 37.5758 31.3258C37.9275 30.9742 38.125 30.4973 38.125 30V17.25C38.125 16.9516 38.0065 16.6655 37.7955 16.4545C37.5845 16.2435 37.2984 16.125 37 16.125ZM28 23.9738L21.8922 18.375H34.1078L28 23.9738ZM24.6991 24L20.125 28.1925V19.8075L24.6991 24ZM26.3641 25.5262L27.2397 26.3297C27.4472 26.52 27.7185 26.6255 28 26.6255C28.2815 26.6255 28.5528 26.52 28.7603 26.3297L29.6359 25.5262L34.1078 29.625H21.8922L26.3641 25.5262ZM31.3009 24L35.875 19.8075V28.1925L31.3009 24Z" fill="#0BB3D8"/>
</svg>
