<svg width="66" height="49" viewBox="0 0 66 49" fill="none" xmlns="http://www.w3.org/2000/svg">
<g filter="url(#filter0_dd_99_85560)">
<rect x="9.22852" y="4.93774" width="46.6143" height="30.0304" rx="5.37857" fill="white"/>
<rect x="9.11646" y="4.82569" width="46.8384" height="30.2545" rx="5.49062" stroke="#D6DCE5" stroke-width="0.224107"/>
<path fill-rule="evenodd" clip-rule="evenodd" d="M19.4256 15.5837H16.7381C16.5542 15.5837 16.3978 15.7174 16.3691 15.8989L15.2821 22.7896C15.2605 22.9256 15.3658 23.0482 15.5038 23.0482H16.7868C16.9707 23.0482 17.1271 22.9145 17.1558 22.7327L17.449 20.8742C17.4772 20.6921 17.634 20.5587 17.8176 20.5587H18.6683C20.4387 20.5587 21.4603 19.7021 21.7273 18.0047C21.8475 17.2621 21.7324 16.6786 21.3845 16.2698C21.0026 15.8212 20.325 15.5837 19.4256 15.5837ZM19.7356 18.1005C19.5887 19.0647 18.8519 19.0647 18.1394 19.0647H17.7339L18.0184 17.2639C18.0353 17.1551 18.1296 17.075 18.2396 17.075H18.4255C18.9108 17.075 19.3686 17.0749 19.6052 17.3515C19.7462 17.5166 19.7895 17.7617 19.7356 18.1005ZM27.4592 18.0696H26.1722C26.0625 18.0696 25.9678 18.1498 25.9509 18.2587L25.8939 18.6185L25.8039 18.4882C25.5253 18.0838 24.9041 17.9487 24.284 17.9487C22.8617 17.9487 21.6471 19.0257 21.4105 20.5365C21.2876 21.29 21.4623 22.0106 21.8899 22.5132C22.2821 22.9752 22.8433 23.1678 23.5109 23.1678C24.6568 23.1678 25.2924 22.431 25.2924 22.431L25.2349 22.7887C25.2133 22.9254 25.3185 23.048 25.4557 23.048H26.615C26.7994 23.048 26.9549 22.9143 26.984 22.7325L27.6796 18.3281C27.7016 18.1927 27.5966 18.0696 27.4592 18.0696ZM25.6652 20.5741C25.541 21.3093 24.9574 21.8028 24.2132 21.8028C23.8395 21.8028 23.5407 21.683 23.3491 21.4558C23.1588 21.2304 23.0865 20.9093 23.147 20.5518C23.2631 19.8228 23.8564 19.3133 24.5893 19.3133C24.9547 19.3133 25.2518 19.4346 25.4475 19.6637C25.6435 19.8952 25.7214 20.2181 25.6652 20.5741ZM33.0201 18.0694H34.3134C34.4945 18.0694 34.6002 18.2725 34.4973 18.4211L30.1959 24.6292C30.1262 24.7297 30.0115 24.7896 29.8889 24.7896H28.5972C28.4153 24.7896 28.3091 24.5848 28.4144 24.4359L29.7538 22.5456L28.3293 18.3656C28.28 18.2203 28.3873 18.0694 28.5419 18.0694H29.8127C29.9778 18.0694 30.1235 18.1778 30.1711 18.3358L30.9271 20.8603L32.7109 18.2332C32.7807 18.1307 32.8968 18.0694 33.0201 18.0694Z" fill="#253B80"/>
<path fill-rule="evenodd" clip-rule="evenodd" d="M47.0426 22.789L48.1456 15.7722C48.1625 15.6633 48.2569 15.5831 48.3665 15.5828H49.6082C49.7453 15.5828 49.8506 15.7057 49.829 15.8417L48.7413 22.7321C48.713 22.9139 48.5566 23.0475 48.3723 23.0475H47.2634C47.1263 23.0475 47.021 22.925 47.0426 22.789ZM38.5957 15.5831H35.9077C35.7242 15.5831 35.5678 15.7168 35.5391 15.8982L34.4521 22.789C34.4305 22.925 34.5358 23.0475 34.6731 23.0475H36.0523C36.1805 23.0475 36.2901 22.9541 36.3101 22.8268L36.6186 20.8736C36.6469 20.6915 36.8037 20.5581 36.9872 20.5581H37.8375C39.6082 20.5581 40.6297 19.7015 40.8969 18.004C41.0174 17.2614 40.9016 16.6779 40.5539 16.2692C40.1722 15.8206 39.4951 15.5831 38.5957 15.5831ZM38.9057 18.0999C38.7592 19.0641 38.0223 19.0641 37.3094 19.0641H36.9043L37.1892 17.2633C37.2061 17.1545 37.2996 17.0743 37.41 17.0743H37.5958C38.0809 17.0743 38.5391 17.0743 38.7755 17.3509C38.9167 17.516 38.9596 17.7611 38.9057 18.0999ZM46.6285 18.069H45.3425C45.2319 18.069 45.1381 18.1492 45.1215 18.2581L45.0646 18.6179L44.9742 18.4875C44.6956 18.0831 44.0748 17.948 43.4546 17.948C42.0324 17.948 40.8181 19.025 40.5815 20.5359C40.459 21.2894 40.633 22.01 41.0605 22.5126C41.4535 22.9746 42.014 23.1672 42.6816 23.1672C43.8274 23.1672 44.4628 22.4304 44.4628 22.4304L44.4056 22.7881C44.3839 22.9248 44.4892 23.0474 44.6272 23.0474H45.786C45.9695 23.0474 46.1259 22.9137 46.1546 22.7319L46.8506 18.3275C46.8719 18.1921 46.7666 18.069 46.6285 18.069ZM44.8347 20.5735C44.7113 21.3087 44.127 21.8022 43.3826 21.8022C43.0096 21.8022 42.7103 21.6823 42.5185 21.4552C42.3282 21.2298 42.2568 20.9086 42.3166 20.5512C42.4332 19.8222 43.0258 19.3127 43.7587 19.3127C44.1242 19.3127 44.4212 19.434 44.6171 19.6631C44.8138 19.8946 44.8917 20.2175 44.8347 20.5735Z" fill="#179BD7"/>
</g>
<defs>
<filter id="filter0_dd_99_85560" x="0.040597" y="0.23148" width="64.9911" height="48.4071" filterUnits="userSpaceOnUse" color-interpolation-filters="sRGB">
<feFlood flood-opacity="0" result="BackgroundImageFix"/>
<feColorMatrix in="SourceAlpha" type="matrix" values="0 0 0 0 0 0 0 0 0 0 0 0 0 0 0 0 0 0 127 0" result="hardAlpha"/>
<feOffset dy="0.448214"/>
<feGaussianBlur stdDeviation="2.24107"/>
<feColorMatrix type="matrix" values="0 0 0 0 0.717647 0 0 0 0 0.717647 0 0 0 0 0.717647 0 0 0 0.08 0"/>
<feBlend mode="normal" in2="BackgroundImageFix" result="effect1_dropShadow_99_85560"/>
<feColorMatrix in="SourceAlpha" type="matrix" values="0 0 0 0 0 0 0 0 0 0 0 0 0 0 0 0 0 0 127 0" result="hardAlpha"/>
<feOffset dy="4.48214"/>
<feGaussianBlur stdDeviation="4.48214"/>
<feColorMatrix type="matrix" values="0 0 0 0 0.717647 0 0 0 0 0.717647 0 0 0 0 0.717647 0 0 0 0.08 0"/>
<feBlend mode="normal" in2="effect1_dropShadow_99_85560" result="effect2_dropShadow_99_85560"/>
<feBlend mode="normal" in="SourceGraphic" in2="effect2_dropShadow_99_85560" result="shape"/>
</filter>
</defs>
</svg>
