<svg width="81" height="80" viewBox="0 0 81 80" fill="none" xmlns="http://www.w3.org/2000/svg">
<path opacity="0.3" d="M80.5 40C80.5 62.0914 62.5914 80 40.5 80C18.4086 80 0.5 62.0914 0.5 40C0.5 17.9086 18.4086 0 40.5 0C62.5914 0 80.5 17.9086 80.5 40ZM11.4071 40C11.4071 56.0675 24.4325 69.0929 40.5 69.0929C56.5675 69.0929 69.5929 56.0675 69.5929 40C69.5929 23.9325 56.5675 10.9071 40.5 10.9071C24.4325 10.9071 11.4071 23.9325 11.4071 40Z" fill="#2F2E30"/>
<circle cx="40.5" cy="40" r="29" fill="black"/>
<path fill-rule="evenodd" clip-rule="evenodd" d="M30.5003 42.6667C29.2117 42.6667 28.167 43.7114 28.167 45.0001V48.3334C28.167 49.6221 29.2117 50.6667 30.5003 50.6667C31.789 50.6667 32.8337 49.6221 32.8337 48.3334V45.0001C32.8337 43.7114 31.789 42.6667 30.5003 42.6667ZM26.167 45.0001C26.167 42.6068 28.1071 40.6667 30.5003 40.6667C32.8936 40.6667 34.8337 42.6068 34.8337 45.0001V48.3334C34.8337 50.7266 32.8936 52.6667 30.5003 52.6667C28.1071 52.6667 26.167 50.7266 26.167 48.3334V45.0001Z" fill="white"/>
<path fill-rule="evenodd" clip-rule="evenodd" d="M50.5003 42.6667C49.2117 42.6667 48.167 43.7114 48.167 45.0001V48.3334C48.167 49.6221 49.2117 50.6667 50.5003 50.6667C51.789 50.6667 52.8337 49.6221 52.8337 48.3334V45.0001C52.8337 43.7114 51.789 42.6667 50.5003 42.6667ZM46.167 45.0001C46.167 42.6068 48.1071 40.6667 50.5003 40.6667C52.8936 40.6667 54.8337 42.6068 54.8337 45.0001V48.3334C54.8337 50.7266 52.8936 52.6667 50.5003 52.6667C48.1071 52.6667 46.167 50.7266 46.167 48.3334V45.0001Z" fill="white"/>
<path fill-rule="evenodd" clip-rule="evenodd" d="M40.5003 27.6667C37.2293 27.6667 34.0923 28.9661 31.7793 31.2791C29.4664 33.592 28.167 36.7291 28.167 40.0001V45.0001C28.167 45.5524 27.7193 46.0001 27.167 46.0001C26.6147 46.0001 26.167 45.5524 26.167 45.0001V40.0001C26.167 36.1986 27.6771 32.5529 30.3651 29.8649C33.0532 27.1769 36.6989 25.6667 40.5003 25.6667C44.3018 25.6667 47.9475 27.1769 50.6355 29.8649C53.3235 32.5529 54.8337 36.1986 54.8337 40.0001V45.0001C54.8337 45.5524 54.3859 46.0001 53.8337 46.0001C53.2814 46.0001 52.8337 45.5524 52.8337 45.0001V40.0001C52.8337 36.7291 51.5343 33.592 49.2213 31.2791C46.9084 28.9661 43.7713 27.6667 40.5003 27.6667Z" fill="white"/>
<path fill-rule="evenodd" clip-rule="evenodd" d="M50.5 50.6667C51.0523 50.6667 51.5 51.1145 51.5 51.6667C51.5 53.5634 50.0176 55.0971 48.0183 56.0967C45.9722 57.1197 43.2674 57.6667 40.5 57.6667C39.9477 57.6667 39.5 57.219 39.5 56.6667C39.5 56.1145 39.9477 55.6667 40.5 55.6667C43.0369 55.6667 45.4192 55.1602 47.1239 54.3079C48.8753 53.4321 49.5 52.4222 49.5 51.6667C49.5 51.1145 49.9477 50.6667 50.5 50.6667Z" fill="white"/>
</svg>
