<svg width="81" height="80" viewBox="0 0 81 80" fill="none" xmlns="http://www.w3.org/2000/svg">
<path opacity="0.3" d="M80.5 40C80.5 62.0914 62.5914 80 40.5 80C18.4086 80 0.5 62.0914 0.5 40C0.5 17.9086 18.4086 0 40.5 0C62.5914 0 80.5 17.9086 80.5 40ZM11.4071 40C11.4071 56.0675 24.4325 69.0929 40.5 69.0929C56.5675 69.0929 69.5929 56.0675 69.5929 40C69.5929 23.9325 56.5675 10.9071 40.5 10.9071C24.4325 10.9071 11.4071 23.9325 11.4071 40Z" fill="#2F2E30"/>
<path d="M69.5 40C69.5 56.0163 56.5163 69 40.5 69C24.4837 69 11.5 56.0163 11.5 40C11.5 23.9837 24.4837 11 40.5 11C56.5163 11 69.5 23.9837 69.5 40Z" fill="black"/>
<path d="M40.5003 57.9332C38.6837 57.9332 36.8837 57.3999 35.467 56.3499L28.3003 50.9999C26.4003 49.5832 24.917 46.6166 24.917 44.2666V31.8666C24.917 29.2999 26.8003 26.5666 29.217 25.6666L37.5337 22.5499C39.1837 21.9332 41.7837 21.9332 43.4337 22.5499L51.7503 25.6666C54.167 26.5666 56.0503 29.2999 56.0503 31.8666V44.2499C56.0503 46.6166 54.567 49.5666 52.667 50.9832L45.5003 56.3332C44.117 57.3999 42.317 57.9332 40.5003 57.9332ZM38.417 24.8999L30.1003 28.0166C28.6837 28.5499 27.4337 30.3499 27.4337 31.8832V44.2666C27.4337 45.8499 28.5503 48.0666 29.8003 48.9999L36.967 54.3499C38.8837 55.7832 42.117 55.7832 44.0503 54.3499L51.217 48.9999C52.4837 48.0499 53.5837 45.8499 53.5837 44.2666V31.8666C53.5837 30.3499 52.3337 28.5499 50.917 27.9999L42.6003 24.8832C41.467 24.4832 39.5337 24.4832 38.417 24.8999Z" fill="#FAFAFA"/>
<path fill-rule="evenodd" clip-rule="evenodd" d="M28.3003 50.9999L35.467 56.3499C36.8837 57.3999 38.6837 57.9332 40.5003 57.9332C42.317 57.9332 44.117 57.3999 45.5003 56.3332L52.667 50.9832C54.567 49.5666 56.0503 46.6166 56.0503 44.2499V31.8666C56.0503 29.2999 54.167 26.5666 51.7503 25.6666L43.4337 22.5499C41.7837 21.9332 39.1837 21.9332 37.5337 22.5499L29.217 25.6666C26.8003 26.5666 24.917 29.2999 24.917 31.8666V44.2666C24.917 46.6166 26.4003 49.5832 28.3003 50.9999ZM37.8837 23.4866C37.8836 23.4867 37.8839 23.4866 37.8837 23.4866L29.566 26.6037C27.5433 27.357 25.917 29.7148 25.917 31.8666V44.2666C25.917 45.2487 26.2326 46.4239 26.79 47.5348C27.3472 48.6455 28.1026 49.6051 28.8981 50.1982L36.0624 55.5465C36.0628 55.5467 36.0631 55.547 36.0634 55.5472C37.2873 56.454 38.8718 56.9332 40.5003 56.9332C42.1317 56.9332 43.7076 56.4528 44.8897 55.5413L44.8959 55.5366L52.0688 50.1819C52.8653 49.588 53.621 48.6314 54.1777 47.5238C54.7344 46.416 55.0503 45.2409 55.0503 44.2499V31.8666C55.0503 29.7148 53.424 27.357 51.4013 26.6037L51.3994 26.603L43.0836 23.4866C43.0835 23.4866 43.0837 23.4867 43.0836 23.4866C42.4016 23.2318 41.4647 23.0874 40.4837 23.0874C39.5026 23.0874 38.5658 23.2318 37.8837 23.4866ZM38.0674 23.963C38.7757 23.6987 39.667 23.5876 40.4997 23.5853C41.334 23.583 42.2235 23.6898 42.9331 23.9402L42.9422 23.9435L51.2789 27.0676C52.2199 27.433 53.0328 28.1754 53.6042 29.0022C54.1753 29.8284 54.5837 30.8526 54.5837 31.8666V44.2666C54.5837 45.2618 54.2471 46.3633 53.7698 47.3179C53.2924 48.2726 52.6132 49.2028 51.817 49.7999L51.8152 49.8012L44.6459 55.1532C43.4736 56.0223 41.9608 56.4249 40.5024 56.4249C39.0443 56.4249 37.5338 56.0225 36.3681 55.1507L29.2021 49.8012C28.412 49.2113 27.7326 48.2795 27.2542 47.3251C26.7757 46.3702 26.4337 45.2638 26.4337 44.2666V31.8832C26.4337 30.8629 26.8405 29.8348 27.4131 29.0063C27.9854 28.1784 28.8012 27.4371 29.748 27.0807L29.7494 27.0802L38.0674 23.963ZM44.0503 54.3499C42.117 55.7832 38.8837 55.7832 36.967 54.3499L29.8003 48.9999C28.5503 48.0666 27.4337 45.8499 27.4337 44.2666V31.8832C27.4337 30.3499 28.6837 28.5499 30.1003 28.0166L38.417 24.8999C39.5337 24.4832 41.467 24.4832 42.6003 24.8832L50.917 27.9999C52.3337 28.5499 53.5837 30.3499 53.5837 31.8666V44.2666C53.5837 45.8499 52.4837 48.0499 51.217 48.9999L44.0503 54.3499Z" fill="#FAFAFA"/>
<path d="M38.2671 43.7167C37.9504 43.7167 37.6337 43.6 37.3837 43.35L34.7004 40.6667C34.2171 40.1834 34.2171 39.3834 34.7004 38.9C35.1837 38.4167 35.9837 38.4167 36.4671 38.9L38.2671 40.7L44.5504 34.4167C45.0337 33.9334 45.8337 33.9334 46.3171 34.4167C46.8004 34.9 46.8004 35.7 46.3171 36.1834L39.1504 43.35C38.9004 43.6 38.5837 43.7167 38.2671 43.7167Z" fill="#FAFAFA"/>
<path fill-rule="evenodd" clip-rule="evenodd" d="M38.2671 42.1142L35.7599 39.6071C35.7169 39.5641 35.6554 39.5375 35.5837 39.5375C35.512 39.5375 35.4506 39.5641 35.4075 39.6071C35.3644 39.6502 35.3379 39.7117 35.3379 39.7834C35.3379 39.8551 35.3644 39.9165 35.4075 39.9596L38.0908 42.6429C38.1202 42.6723 38.1483 42.6892 38.174 42.6995C38.2006 42.7103 38.2317 42.7167 38.2671 42.7167C38.3024 42.7167 38.3335 42.7103 38.3601 42.6995C38.3858 42.6892 38.4139 42.6723 38.4433 42.6429L45.6099 35.4763C45.653 35.4332 45.6796 35.3717 45.6796 35.3C45.6796 35.2283 45.653 35.1669 45.6099 35.1238C45.5669 35.0808 45.5054 35.0542 45.4337 35.0542C45.362 35.0542 45.3006 35.0808 45.2575 35.1238L38.2671 42.1142ZM36.4671 38.9C35.9837 38.4167 35.1837 38.4167 34.7004 38.9C34.2171 39.3834 34.2171 40.1834 34.7004 40.6667L37.3837 43.35C37.6337 43.6 37.9504 43.7167 38.2671 43.7167C38.5837 43.7167 38.9004 43.6 39.1504 43.35L46.3171 36.1834C46.8004 35.7 46.8004 34.9 46.3171 34.4167C45.8337 33.9334 45.0337 33.9334 44.5504 34.4167L38.2671 40.7L36.4671 38.9Z" fill="#FAFAFA"/>
</svg>
